<?xml version="1.0" encoding="UTF-8"?>
<svg id="Layer_2" data-name="Layer 2" xmlns="http://www.w3.org/2000/svg" viewBox="0 0 116.02 92.11">
  <g id="Contents">
    <g>
      <path d="M103.54,69.46c-3.67-.07-7.3,1.63-10.85,5.05-2.69,2.59-5.32,3.92-7.78,3.84-2.51-.04-5.07-1.43-7.63-4.12-3.4-3.54-6.98-5.37-10.66-5.44-3.66-.07-7.3,1.63-10.85,5.05-2.69,2.59-5.3,3.92-7.78,3.84-2.47-.05-5.03-1.43-7.63-4.12-3.42-3.54-7-5.37-10.65-5.44-3.67-.07-7.3,1.63-10.85,5.05-2.69,2.6-5.28,3.91-7.78,3.84-2.44-.04-5.01-1.44-7.71-4.2l-1.22-1.22-1.29,4.8.44.41c3.13,2.94,6.4,4.46,9.71,4.52,3.65.02,7.3-1.63,10.85-5.05,2.69-2.59,5.31-3.9,7.78-3.84,2.48.04,5.05,1.43,7.63,4.12,3.42,3.54,7,5.37,10.65,5.44,3.63.04,7.3-1.63,10.85-5.05,2.69-2.59,5.29-3.9,7.78-3.84,2.47.04,5.04,1.43,7.63,4.12,3.4,3.54,6.99,5.37,10.66,5.44.07,0,.14,0,.2,0,3.59,0,7.17-1.7,10.64-5.05,2.69-2.59,5.31-3.88,7.78-3.84,2.45.04,5.02,1.44,7.66,4.15l3.61,3.61,1.29-4.8-2.17-2.17c-3.31-3.31-6.78-5.02-10.31-5.09Z"/>
      <path d="M113.85,83.99c-3.31-3.31-6.78-5.02-10.31-5.09-3.65-.05-7.3,1.63-10.85,5.05-2.69,2.59-5.3,3.88-7.78,3.84-2.51-.04-5.07-1.43-7.63-4.12-3.4-3.54-6.98-5.38-10.66-5.44-3.66-.09-7.3,1.63-10.85,5.05-2.69,2.59-5.32,3.9-7.78,3.84-2.47-.05-5.03-1.43-7.63-4.12-3.42-3.54-7-5.37-10.65-5.44-3.65-.05-7.3,1.63-10.85,5.05-2.69,2.6-5.3,3.86-7.78,3.84-2.44-.04-5.01-1.44-7.71-4.2l-1.23-1.24-1.29,4.82.44.41c3.13,2.94,6.4,4.46,9.71,4.52,3.64.05,7.3-1.63,10.85-5.05,2.69-2.59,5.3-3.91,7.78-3.84,2.48.04,5.05,1.43,7.63,4.12,3.42,3.54,7,5.37,10.65,5.44,3.67.03,7.3-1.63,10.85-5.05,2.69-2.6,5.29-3.9,7.78-3.84,2.47.04,5.04,1.43,7.63,4.12,3.4,3.54,6.99,5.37,10.66,5.44.07,0,.14,0,.21,0,3.58,0,7.16-1.7,10.64-5.05,2.69-2.6,5.31-3.9,7.78-3.84,2.45.04,5.02,1.44,7.66,4.15l3.61,3.61,1.29-4.8-1.83-1.83c-.11-.12-.23-.24-.34-.35Z"/>
      <path d="M20.46,65.45h83.06c.84,0,1.59-.53,1.88-1.32l9.23-25.38c.22-.61.13-1.3-.24-1.83s-.99-.85-1.64-.85h-3.62l-6.76-24.01c-.18-.65-.77-1.09-1.44-1.09h-3.37V1.15c0-.64-.52-1.15-1.15-1.15h-6.79c-.64,0-1.15.52-1.15,1.15v9.82h-1.11c-.83,0-1.5.67-1.5,1.5v23.6h-3.9v-11.84c0-.83-.67-1.5-1.5-1.5h-5.27v-6.35l-3.31-1.91v8.26h-19.76v-6.35l-3.31-1.91v8.26h-19.76v-6.35l-3.31-1.91v8.26h-5.27c-.65,0-1.22.41-1.42,1.03l-4.11,12.32H2c-.75,0-1.44.42-1.78,1.09-.34.67-.28,1.48.16,2.08l18.46,25.38c.38.52.98.82,1.62.82ZM88.85,21.26h8.62l-1.91-3.31h-6.7v-3.99h10.94l4.37,15.52h-5.56l-1.67,3.31h8.17l.92,3.27h-17.16v-14.8ZM19.18,32.8h55.21l-1.91-3.31H20.28l1.26-3.77h57.41v10.34H18.09l1.09-3.27ZM14.79,52.26l-2.18-3h93.94l-1.09,3H14.79Z"/>
    </g>
  </g>
</svg>