<svg width="179" height="170" viewBox="0 0 179 170" fill="none" xmlns="http://www.w3.org/2000/svg">
<path d="M85.9809 123.07C75.3709 123.06 81.8909 113.03 78.7209 107.1C76.0409 101.76 69.2609 101.88 66.0509 106.66C64.0809 109.54 60.601 113.24 56.891 111.32C53.361 109.57 51.831 104.8 52.451 101.23C53.501 90.7197 66.8109 85.2097 73.3709 94.4597C75.7909 97.8497 76.1309 92.4997 76.0909 90.7597C76.0009 88.6997 75.3509 86.6997 74.2909 84.8897C70.6809 78.6097 63.031 76.1797 59.391 70.0097C54.171 59.4797 68.271 57.5197 73.921 63.8897C77.121 67.0697 77.8309 72.7297 81.6109 75.2397C81.6709 75.2397 81.7309 75.2197 81.7809 75.1897C82.7509 73.9597 83.1909 70.6597 83.5909 68.7597C87.1209 47.5397 119.111 42.5097 115.741 54.2497C113.911 57.6597 109.571 58.3397 106.361 60.0397C95.5109 64.9297 90.5109 74.9097 90.6609 86.1297C90.7809 88.5497 92.281 86.7297 93.391 85.3597C98.841 77.4997 107.421 76.1097 115.471 80.9997C121.471 84.6497 125.261 91.7697 126.571 97.3097C130.311 109.59 118.691 113.16 115.531 100.35C114.411 96.2197 113.321 91.3897 109.361 89.0197C102.801 84.7597 94.0409 89.0397 92.0309 96.3397C90.3609 101.75 91.9009 107.46 92.7409 112.86C93.8709 118.13 92.5209 123.13 86.1809 123.06H85.9709L85.9809 123.07Z" fill="black"/>
</svg>
