<?xml version="1.0" encoding="UTF-8"?>
<svg id="_레이어_2" data-name="레이어 2" xmlns="http://www.w3.org/2000/svg" viewBox="0 0 164.42 70">
  <defs>
    <style>
      .cls-1 {
        fill: #73d75a;
      }

      .cls-2 {
        fill: #fff;
      }

      .cls-3 {
        fill: #00af41;
      }

      .cls-4 {
        fill: #006432;
      }
    </style>
  </defs>
  <g id="Contents">
    <g>
      <g>
        <polygon class="cls-4" points="20.2 35 0 70 40.41 70 20.2 35"/>
        <polygon class="cls-1" points="0 0 40.41 0 60.61 35 0 0"/>
        <polygon class="cls-3" points="0 0 60.61 35 40.41 70 0 0"/>
      </g>
      <g>
        <path class="cls-2" d="M141.81,12.25h-16.26v45.5h16.26c14.92,0,22.61-7.8,22.61-23.11s-7.68-22.39-22.61-22.39ZM141.53,50.01h-5.79v-30.02h5.79c8.85,0,12.97,4.9,12.97,14.65s-4.12,15.37-12.97,15.37Z"/>
        <polygon class="cls-2" points="106.79 12.25 106.79 38.07 102.07 29.9 88.19 29.9 88.19 12.25 78.11 12.25 78.11 57.75 88.19 57.75 88.19 38.7 106.79 38.7 106.79 57.75 116.92 57.75 116.92 12.25 106.79 12.25"/>
      </g>
    </g>
  </g>
</svg>